<svg xmlns="http://www.w3.org/2000/svg" width="68" height="66" viewBox="0 0 68 66" version="1.1"><path d="M 42.500 5.883 C 40.850 6.915, 33.875 13.551, 27 20.630 L 14.500 33.500 20.418 33.805 L 26.335 34.110 32.418 28.228 C 35.763 24.993, 40.016 21.127, 41.870 19.637 C 45.089 17.049, 45.352 17, 47.727 18.556 C 50.124 20.127, 50.328 20.074, 53.404 17.093 C 55.159 15.392, 57.431 14, 58.453 14 C 60.248 14, 60.246 13.928, 58.405 11.854 C 55.507 8.588, 48.899 4, 47.100 4.004 C 46.220 4.006, 44.150 4.852, 42.500 5.883" stroke="none" fill="#64c5bb" fill-rule="evenodd"/><path d="M 34.250 36.441 C 22.013 48.655, 12 58.953, 12 59.324 C 12 60.504, 25.409 59.981, 27.627 58.715 C 28.797 58.047, 34.613 52.438, 40.552 46.250 C 46.491 40.063, 52.093 35, 53.001 35 C 53.909 35, 55.695 36.111, 56.971 37.469 C 58.247 38.827, 59.675 39.701, 60.145 39.410 C 60.615 39.120, 61 33.284, 61 26.441 C 61 14.171, 60.969 14.002, 58.750 14.117 C 57.233 14.196, 49.251 21.469, 34.250 36.441 M 8.613 35.876 C 7.256 37.374, 6.974 39.335, 7.208 45.626 L 7.500 53.500 16.904 43.750 L 26.308 34 18.309 34 C 11.757 34, 10.003 34.339, 8.613 35.876" stroke="none" fill="#05216a" fill-rule="evenodd"/></svg>